<?xml version="1.0" encoding="UTF-8" standalone="no"?>
<svg
   width="64"
   height="64"
   viewBox="0 0 16.933333 16.933334"
   version="1.1"
   id="svg8"
   inkscape:version="1.2.2 (b0a8486541, 2022-12-01)"
   sodipodi:docname="logo.svg"
   inkscape:export-filename="/home/liss22/engineWorkPPT/icon.png"
   inkscape:export-xdpi="96"
   inkscape:export-ydpi="96"
   xmlns:inkscape="http://www.inkscape.org/namespaces/inkscape"
   xmlns:sodipodi="http://sodipodi.sourceforge.net/DTD/sodipodi-0.dtd"
   xmlns="http://www.w3.org/2000/svg"
   xmlns:svg="http://www.w3.org/2000/svg"
   xmlns:rdf="http://www.w3.org/1999/02/22-rdf-syntax-ns#"
   xmlns:cc="http://creativecommons.org/ns#"
   xmlns:dc="http://purl.org/dc/elements/1.1/">
  <defs
     id="defs2">
    <inkscape:perspective
       sodipodi:type="inkscape:persp3d"
       inkscape:vp_x="0 : 8.466667 : 1"
       inkscape:vp_y="0 : 1000 : 0"
       inkscape:vp_z="16.933333 : 8.466667 : 1"
       inkscape:persp3d-origin="8.4666665 : 5.6444447 : 1"
       id="perspective853" />
  </defs>
  <sodipodi:namedview
     id="base"
     pagecolor="#ffffff"
     bordercolor="#666666"
     borderopacity="1.0"
     inkscape:pageopacity="0.0"
     inkscape:pageshadow="2"
     inkscape:zoom="4.9141879"
     inkscape:cx="18.009079"
     inkscape:cy="32.76228"
     inkscape:document-units="mm"
     inkscape:current-layer="layer1"
     inkscape:document-rotation="0"
     showgrid="false"
     units="px"
     inkscape:window-width="1499"
     inkscape:window-height="614"
     inkscape:window-x="50"
     inkscape:window-y="104"
     inkscape:window-maximized="0"
     inkscape:showpageshadow="2"
     inkscape:pagecheckerboard="0"
     inkscape:deskcolor="#d1d1d1" />
  <metadata
     id="metadata5">
    <rdf:RDF>
      <cc:Work
         rdf:about="">
        <dc:format>image/svg+xml</dc:format>
        <dc:type
           rdf:resource="http://purl.org/dc/dcmitype/StillImage" />
        <dc:title />
      </cc:Work>
    </rdf:RDF>
  </metadata>
  <g
     inkscape:label="레이어 1"
     inkscape:groupmode="layer"
     id="layer1">
    <rect
       style="fill:#ffffff;fill-opacity:1;stroke:#000000;stroke-width:0.529167;stroke-miterlimit:4;stroke-dasharray:none;stroke-opacity:1"
       id="rect847"
       width="12.493416"
       height="8.4393778"
       x="2.2199588"
       y="3.1886444" />
    <rect
       style="fill:#bdbdbd;fill-opacity:1;stroke:#000000;stroke-width:0.529167;stroke-miterlimit:4;stroke-dasharray:none;stroke-opacity:1"
       id="rect849"
       width="14.143562"
       height="1.8385451"
       x="1.3948857"
       y="1.6795163" />
    <rect
       style="fill:#bdbdbd;fill-opacity:1;stroke:#000000;stroke-width:0.529167;stroke-miterlimit:4;stroke-dasharray:none;stroke-opacity:1"
       id="rect851"
       width="14.143562"
       height="1.8385451"
       x="1.3948857"
       y="11.186541" />
    <path
       style="fill:#478cbf;fill-opacity:1;stroke:#000000;stroke-width:0.342161;stroke-linecap:round;stroke-linejoin:round;stroke-miterlimit:4;stroke-dasharray:none;stroke-opacity:1"
       d="M 5.8118838,4.8303464 3.7270424,8.4429829 6.3368163,9.3726876 Z"
       id="path897"
       sodipodi:nodetypes="cccc" />
    <path
       style="fill:#355570;fill-opacity:1;stroke:#000000;stroke-width:0.342161;stroke-linecap:round;stroke-linejoin:round;stroke-miterlimit:4;stroke-dasharray:none;stroke-opacity:1"
       d="M 5.8118837,4.8303464 6.3368161,9.3726876 8.0407735,7.9007429 Z"
       id="path899" />
    <g
       id="g639"
       transform="translate(0.42945473)">
      <g
         aria-label="Engine PPT"
         id="text939"
         style="font-size:2.82455px;line-height:1.25;stroke-width:0.0706139">
        <path
           d="M 0.98572501,15.002066 H 2.1070713 V 14.770453 H 0.98572501 v -0.65812 H 2.1494396 V 13.88072 H 0.72304187 v 2.059096 H 2.2002815 V 15.708203 H 0.98572501 Z"
           id="path565" />
        <path
           d="m 2.5505252,14.459752 v 1.480064 h 0.2372622 v -0.816294 c 0,-0.302227 0.1581748,-0.499946 0.4010861,-0.499946 0.1864203,0 0.3050514,0.112982 0.3050514,0.290929 v 1.025311 h 0.2344376 v -1.118521 c 0,-0.245736 -0.1835957,-0.403911 -0.4688753,-0.403911 -0.2203149,0 -0.3615424,0.08474 -0.4914717,0.290929 v -0.248561 z"
           id="path567" />
        <path
           d="m 5.064374,14.459752 v 0.214666 C 4.9457429,14.496471 4.8158136,14.417384 4.6293933,14.417384 c -0.3587179,0 -0.6072783,0.333297 -0.6072783,0.807821 0,0.248561 0.059316,0.429332 0.1864203,0.579033 0.1101575,0.129929 0.251385,0.200543 0.4039107,0.200543 0.1779466,0 0.3050514,-0.07909 0.4293316,-0.265508 v 0.07626 c 0,0.395437 -0.1101575,0.542314 -0.4039107,0.542314 -0.200543,0 -0.3050514,-0.07909 -0.3276478,-0.248561 H 4.0701324 c 0.022596,0.273982 0.2400867,0.446279 0.5620854,0.446279 0.2174904,0 0.3982616,-0.07061 0.4942963,-0.189244 0.112982,-0.138403 0.1553502,-0.321999 0.1553502,-0.669419 v -1.237153 z m -0.4123843,0.175122 c 0.2485604,0 0.3897879,0.209017 0.3897879,0.584682 0,0.358718 -0.1440521,0.567735 -0.3897879,0.567735 -0.2429113,0 -0.3841388,-0.211841 -0.3841388,-0.576208 0,-0.361543 0.1412275,-0.576209 0.3841388,-0.576209 z"
           id="path569" />
        <path
           d="M 5.9173876,14.459752 H 5.68295 v 1.480064 h 0.2344376 z m 0,-0.579032 H 5.6801254 v 0.296577 h 0.2372622 z"
           id="path571" />
        <path
           d="m 6.318474,14.459752 v 1.480064 h 0.2372622 v -0.816294 c 0,-0.302227 0.1581748,-0.499946 0.4010861,-0.499946 0.1864203,0 0.3050514,0.112982 0.3050514,0.290929 v 1.025311 h 0.2344377 v -1.118521 c 0,-0.245736 -0.1835958,-0.403911 -0.4688753,-0.403911 -0.2203149,0 -0.3615424,0.08474 -0.4914717,0.290929 v -0.248561 z"
           id="path573" />
        <path
           d="m 9.1401985,15.278872 c 0,-0.225964 -0.016947,-0.361543 -0.059316,-0.4717 -0.096035,-0.242911 -0.3219987,-0.389788 -0.5988046,-0.389788 -0.4123843,0 -0.677892,0.313525 -0.677892,0.802172 0,0.488647 0.2542095,0.785225 0.6722429,0.785225 0.338946,0 0.5733836,-0.192069 0.6326992,-0.514068 H 8.8718663 c -0.064965,0.194894 -0.1977185,0.296578 -0.3869633,0.296578 -0.1497012,0 -0.2768059,-0.06779 -0.3558933,-0.19207 -0.056491,-0.08474 -0.076263,-0.169473 -0.079087,-0.316349 z m -1.0846271,-0.19207 c 0.019772,-0.273981 0.1864203,-0.451928 0.4236825,-0.451928 0.2400867,0 0.4067351,0.186421 0.4067351,0.451928 z"
           id="path575" />
        <path
           d="m 10.566595,15.067031 h 0.646822 c 0.161,0 0.288104,-0.04802 0.398262,-0.146877 0.12428,-0.112982 0.177947,-0.245736 0.177947,-0.434981 0,-0.386963 -0.228789,-0.604453 -0.635524,-0.604453 h -0.85019 v 2.059096 h 0.262683 z m 0,-0.231614 v -0.723084 h 0.547963 c 0.251385,0 0.401086,0.135578 0.401086,0.361542 0,0.225964 -0.149701,0.361542 -0.401086,0.361542 z"
           id="path577" />
        <path
           d="m 12.354534,15.067031 h 0.646821 c 0.161,0 0.288105,-0.04802 0.398262,-0.146877 0.12428,-0.112982 0.177947,-0.245736 0.177947,-0.434981 0,-0.386963 -0.228789,-0.604453 -0.635524,-0.604453 h -0.85019 v 2.059096 h 0.262684 z m 0,-0.231614 v -0.723084 h 0.547962 c 0.251385,0 0.401086,0.135578 0.401086,0.361542 0,0.225964 -0.149701,0.361542 -0.401086,0.361542 z"
           id="path579" />
        <path
           d="m 14.676315,14.112333 h 0.675067 V 13.88072 H 13.73574 v 0.231613 h 0.677892 v 1.827483 h 0.262683 z"
           id="path581" />
      </g>
    </g>
    <path
       style="fill:#d18cbf;fill-opacity:1;stroke:#000000;stroke-width:0.264583;stroke-linecap:round;stroke-linejoin:round;stroke-miterlimit:4;stroke-dasharray:none;stroke-opacity:1"
       id="path941"
       sodipodi:type="arc"
       sodipodi:cx="11.626676"
       sodipodi:cy="6.2687101"
       sodipodi:rx="1.7681173"
       sodipodi:ry="1.7681173"
       sodipodi:start="0"
       sodipodi:end="4.2327766"
       sodipodi:arc-type="slice"
       d="M 13.394793,6.2687101 A 1.7681173,1.7681173 0 0 1 11.908143,8.0142802 1.7681173,1.7681173 0 0 1 9.9481724,6.824467 1.7681173,1.7681173 0 0 1 10.810804,4.7000827 l 0.815872,1.5686274 z" />
    <path
       style="fill:none;stroke:#000000;stroke-width:0.241971px;stroke-linecap:butt;stroke-linejoin:miter;stroke-opacity:1"
       d="m 10.265548,8.7332872 h 2.949564"
       id="path943" />
    <path
       style="fill:none;stroke:#000000;stroke-width:0.241971px;stroke-linecap:butt;stroke-linejoin:miter;stroke-opacity:1"
       d="m 10.265548,9.5270369 h 2.949564"
       id="path945" />
    <path
       style="fill:none;stroke:#000000;stroke-width:0.241971px;stroke-linecap:butt;stroke-linejoin:miter;stroke-opacity:1"
       d="m 10.265548,10.320787 h 2.949564"
       id="path947" />
  </g>
</svg>
